<svg xmlns="http://www.w3.org/2000/svg" width="256" height="256" viewBox="0 0 256 256"><path d="M104 156.5l-34.7 18.3-2.9-4.1 18.1-21.4H98l6 7.2zm2.8 3.3l8.5 10.3h-28l19.5-10.3zm45.8-10.5l-17.2 20.8h-14.8l-17.2-20.8h49.2zm-3.5 10.5l19.5 10.3h-27.9l8.4-10.3zm-62-29.3c-2-4.8-2.4-10.3-2.4-15.6a44.5 44.5 0 0 1 88.9 0 48.5 48.5 0 0 1-2.5 15.6zM73 134.6h112.3v10.67H73zm98.5 14.7l18.1 21.6-2.9 3.9-34.9-18.3 6.2-7.2h13.5z"/><path d="M128 3L19.8 65.5v125L128 253l108.2-62.5v-125zm65.7 168.9l-4.7 6.8a2.3 2.3 0 0 1-2.7.6l-9.8-5.1H79.3l-9.8 5.1a2.3 2.3 0 0 1-2.7-.6l-4.7-6.8a2.1 2.1 0 0 1 .2-2.4l17-20.2h-8.4a1.9 1.9 0 0 1-2-2v-14.8a1.9 1.9 0 0 1 2-2h11.9a59.3 59.3 0 0 1-2.2-15.6 48.6 48.6 0 1 1 94.8 15.6h11.9a1.9 1.9 0 0 1 2.1 2v14.8a1.9 1.9 0 0 1-2.1 2h-10.4l16.8 20.2a2.1 2.1 0 0 1 0 2.4z"/></svg>