<svg xmlns="http://www.w3.org/2000/svg" width="256" height="256" viewBox="0 0 256 256"><path d="M79.5 157.1h13.1v12.93H79.5zm17.3 0h20.5v12.93H96.8zm24.6 0h13.1v12.93h-13.1zm17.3 0h20.5v12.93h-20.5zm34.5-44.5H82.8C83.9 86.1 104 71.5 128 71.5s44.1 14.6 45.2 41.1zm-9.9 44.5h13.1v12.93h-13.1zm-96.1-40.4V153h121.6v-36.3zm109.9 26.5H127a2.1 2.1 0 1 1 0-4.1h50.1a2.1 2.1 0 0 1 0 4.1z"/><path d="M128 3L19.8 65.5v125L128 253l108.2-62.5v-125zm64.9 152.1a2 2 0 0 1-2.1 2h-10.3v13h10.3a2.1 2.1 0 1 1 0 4.1H65.2a2.1 2.1 0 1 1 0-4.1h10.2v-13H65.2a2 2 0 0 1-2.1-2v-40.5a2 2 0 0 1 2.1-2h13.5c1.1-29.1 22.8-45.2 49.3-45.2s48.2 16.1 49.3 45.2h13.5a2 2 0 0 1 2.1 2z"/></svg>