<svg xmlns="http://www.w3.org/2000/svg"><symbol id="dome" viewBox="0 0 256 256"><path d="M128 3l108.3 62.5v125L128 253 19.7 190.5v-125L128 3z"/><path fill="#fff" d="M65.2 174.2a2.1 2.1 0 1 1 0-4.1h10.2v-13H65.2a1.9 1.9 0 0 1-2.1-2v-40.4a1.9 1.9 0 0 1 2.1-2.1h13.5c1.1-29.2 22.8-45.2 49.3-45.2s48.2 16 49.3 45.2h13.5a2 2 0 0 1 2.1 2.1v40.4a2 2 0 0 1-2.1 2h-10.2v13h10.2a2.1 2.1 0 1 1 0 4.1zm2-57.5V153h121.6v-36.3zm12.3 40.4v13h13.2v-13zm3.3-44.5h90.4C172.1 86.1 152 71.5 128 71.5s-44.1 14.6-45.2 41.1zm14 44.5v13h20.5v-13zm24.6 0v13h13.2v-13zm55.7-13.9H127a2.1 2.1 0 1 1 0-4.1h50.1a2.1 2.1 0 0 1 0 4.1zm-38.4 13.9v13h20.5v-13zm24.6 0v13h13.1v-13z"/></symbol><symbol id="stilt" viewBox="0 0 256 256"><path d="M128 3l108.3 62.5v125L128 253 19.7 190.5v-125L128 3z"/><path fill="#fff" d="M68.7 174.2a1.9 1.9 0 0 1-2.1-2.1v-24.8H39.5a2.1 2.1 0 0 1 0-4.1h15.4v-13.4a1.9 1.9 0 0 1 2.1-2h8a65 65 0 0 1 62.8-49.9c.2-.2.4-.2.8 0 30.4.2 55.6 21.6 62.4 49.9h8a1.9 1.9 0 0 1 2.1 2v13.4h15.4a2.1 2.1 0 0 1 0 4.1h-27.1v24.8a1.9 1.9 0 0 1-2.1 2.1zM59 131.9v11.3h138v-11.3zm64.9-49.7a60.8 60.8 0 0 0-54.6 45.6h22zm-53.2 65.1v22.8h55.2v-22.8zm55.2-61l-29.5 41.5h29.5zM130 82v45.8h56.7A60.9 60.9 0 0 0 130 82zm0 65.3v22.8h9.3v-22.8zm13.4 0v22.8h41.9v-22.8z"/></symbol><symbol id="bubble" viewBox="0 0 256 256"><path d="M128 3l108.3 62.5v125L128 253 19.7 190.5v-125L128 3z"/><path fill="#fff" d="M66.8 178.7l-4.7-6.8a2.1 2.1 0 0 1 .2-2.4l17-20.2h-8.4a1.9 1.9 0 0 1-2-2v-14.8a1.9 1.9 0 0 1 2-2h11.9a59.3 59.3 0 0 1-2.2-15.6 48.6 48.6 0 1 1 94.8 15.6h11.9a1.9 1.9 0 0 1 2.1 2v14.8a1.9 1.9 0 0 1-2.1 2h-10.4l16.8 20.2a2.1 2.1 0 0 1 0 2.4l-4.7 6.8a2.3 2.3 0 0 1-2.7.6l-9.9-5.1H79.3l-9.8 5.1a2.3 2.3 0 0 1-2.7-.6zM98 149.3H84.5l-18.1 21.4 2.9 4.1 34.7-18.3zm-25-14.7v10.6h112.3v-10.6zm14.1-4.1h84a48.5 48.5 0 0 0 2.5-15.6 44.5 44.5 0 0 0-88.9 0c0 5.3.4 10.8 2.4 15.6zm19.8 29.3l-19.6 10.3h28zm-3.5-10.5l17.2 20.8h14.8l17.2-20.8zm45.7 10.5l-8.4 10.3h27.9zm22.4-10.5H158l-6.2 7.2 34.9 18.3 2.9-3.9z"/></symbol></svg>