<svg xmlns="http://www.w3.org/2000/svg"><symbol id="bubble" viewBox="0 0 256 256"><path d="M104 156.5l-34.7 18.3-2.9-4.1 18.1-21.4H98l6 7.2zm2.8 3.3l8.5 10.3h-28l19.5-10.3zm45.8-10.5l-17.2 20.8h-14.8l-17.2-20.8h49.2zm-3.5 10.5l19.5 10.3h-27.9l8.4-10.3zm-62-29.3c-2-4.8-2.4-10.3-2.4-15.6a44.5 44.5 0 0 1 88.9 0 48.5 48.5 0 0 1-2.5 15.6zM73 134.6h112.3v10.67H73zm98.5 14.7l18.1 21.6-2.9 3.9-34.9-18.3 6.2-7.2h13.5z"/><path d="M128 3L19.8 65.5v125L128 253l108.2-62.5v-125zm65.7 168.9l-4.7 6.8a2.3 2.3 0 0 1-2.7.6l-9.8-5.1H79.3l-9.8 5.1a2.3 2.3 0 0 1-2.7-.6l-4.7-6.8a2.1 2.1 0 0 1 .2-2.4l17-20.2h-8.4a1.9 1.9 0 0 1-2-2v-14.8a1.9 1.9 0 0 1 2-2h11.9a59.3 59.3 0 0 1-2.2-15.6 48.6 48.6 0 1 1 94.8 15.6h11.9a1.9 1.9 0 0 1 2.1 2v14.8a1.9 1.9 0 0 1-2.1 2h-10.4l16.8 20.2a2.1 2.1 0 0 1 0 2.4z"/></symbol><symbol id="stilt" viewBox="0 0 256 256"><path d="M91.2 127.8H69.3c6.4-24.8 28.3-43.9 54.6-45.6zm5.2 0l29.5-41.5v41.5H96.4zm-25.7 19.5h55.2v22.79H70.7zm59.4 0h9.2v22.79h-9.2zm13.3 0h41.9v22.79h-41.9zm43.3-19.5h-56.6V82a61 61 0 0 1 56.6 45.8zM59 131.9h138v11.29H59z"/><path d="M128 3L19.8 65.5v125L128 253l108.2-62.5v-125zm88.5 144.3h-27.1v24.8a1.9 1.9 0 0 1-2.1 2.1H68.7a1.9 1.9 0 0 1-2.1-2.1v-24.8H39.5a2.1 2.1 0 0 1 0-4.1h15.4v-13.4a1.9 1.9 0 0 1 2.1-2h8a65 65 0 0 1 62.8-49.9c.2-.2.4-.2.8 0 30.4.2 55.6 21.6 62.4 49.9h8a1.9 1.9 0 0 1 2.1 2v13.4h15.4a2.1 2.1 0 0 1 0 4.1z"/></symbol><symbol id="dome" viewBox="0 0 256 256"><path d="M79.5 157.1h13.1v12.93H79.5zm17.3 0h20.5v12.93H96.8zm24.6 0h13.1v12.93h-13.1zm17.3 0h20.5v12.93h-20.5zm34.5-44.5H82.8C83.9 86.1 104 71.5 128 71.5s44.1 14.6 45.2 41.1zm-9.9 44.5h13.1v12.93h-13.1zm-96.1-40.4V153h121.6v-36.3zm109.9 26.5H127a2.1 2.1 0 1 1 0-4.1h50.1a2.1 2.1 0 0 1 0 4.1z"/><path d="M128 3L19.8 65.5v125L128 253l108.2-62.5v-125zm64.9 152.1a2 2 0 0 1-2.1 2h-10.3v13h10.3a2.1 2.1 0 1 1 0 4.1H65.2a2.1 2.1 0 1 1 0-4.1h10.2v-13H65.2a2 2 0 0 1-2.1-2v-40.5a2 2 0 0 1 2.1-2h13.5c1.1-29.1 22.8-45.2 49.3-45.2s48.2 16.1 49.3 45.2h13.5a2 2 0 0 1 2.1 2z"/></symbol></svg>