<svg xmlns="http://www.w3.org/2000/svg" width="256" height="256" viewBox="0 0 256 256"><path d="M91.2 127.8H69.3c6.4-24.8 28.3-43.9 54.6-45.6zm5.2 0l29.5-41.5v41.5H96.4zm-25.7 19.5h55.2v22.79H70.7zm59.4 0h9.2v22.79h-9.2zm13.3 0h41.9v22.79h-41.9zm43.3-19.5h-56.6V82a61 61 0 0 1 56.6 45.8zM59 131.9h138v11.29H59z"/><path d="M128 3L19.8 65.5v125L128 253l108.2-62.5v-125zm88.5 144.3h-27.1v24.8a1.9 1.9 0 0 1-2.1 2.1H68.7a1.9 1.9 0 0 1-2.1-2.1v-24.8H39.5a2.1 2.1 0 0 1 0-4.1h15.4v-13.4a1.9 1.9 0 0 1 2.1-2h8a65 65 0 0 1 62.8-49.9c.2-.2.4-.2.8 0 30.4.2 55.6 21.6 62.4 49.9h8a1.9 1.9 0 0 1 2.1 2v13.4h15.4a2.1 2.1 0 0 1 0 4.1z"/></svg>